<?xml version="1.0" encoding="utf-8"?>
<!-- Generator: Adobe Illustrator 16.0.0, SVG Export Plug-In . SVG Version: 6.00 Build 0)  -->
<!DOCTYPE svg PUBLIC "-//W3C//DTD SVG 1.1//EN" "http://www.w3.org/Graphics/SVG/1.1/DTD/svg11.dtd" [
	<!ENTITY ns_flows "http://ns.adobe.com/Flows/1.0/">
	<!ENTITY ns_extend "http://ns.adobe.com/Extensibility/1.0/">
	<!ENTITY ns_ai "http://ns.adobe.com/AdobeIllustrator/10.0/">
	<!ENTITY ns_graphs "http://ns.adobe.com/Graphs/1.0/">
]>
<svg version="1.1" id="Layer_1" xmlns:x="&ns_extend;" xmlns:i="&ns_ai;" xmlns:graph="&ns_graphs;"
	 xmlns="http://www.w3.org/2000/svg" xmlns:xlink="http://www.w3.org/1999/xlink" xmlns:a="http://ns.adobe.com/AdobeSVGViewerExtensions/3.0/"
	 x="0px" y="0px" width="400px" height="400px" viewBox="0 0 400 400" enable-background="new 0 0 400 400" xml:space="preserve">
<g>
	<path fill="#EF4538" d="M179.762,7.029c0,0,63.571,83.792-52.802,176.06c-116.382,92.252,36.636,189.234,52.802,201.096
		c0,0-49.569-86.218-16.166-135.779c33.407-49.572,131.465-121.431,64.653-192.771L179.762,7.029z"/>
	<path fill="#EF4538" d="M302.603,207.643c0,0,12.947,61.609-47.396,104.726c-60.346,43.092-30.19,71.816-30.19,71.816
		s25.318-30.445,36.779-41.84C278.241,325.983,324.164,278.757,302.603,207.643"/>
	<path fill="#EF4538" d="M265.971,146.709c0,0,15.347,56.883-55.794,92.362c-71.133,35.491-15.845,112.892-10.289,121.974
		c0,0-8.315-56.2,16.153-79.521c24.468-23.298,83.371-49.866,64.312-100.133L265.971,146.709z"/>
</g>
</svg>
