<?xml version="1.0" encoding="utf-8"?>
<!-- Generator: Adobe Illustrator 16.0.0, SVG Export Plug-In . SVG Version: 6.00 Build 0)  -->
<!DOCTYPE svg PUBLIC "-//W3C//DTD SVG 1.1//EN" "http://www.w3.org/Graphics/SVG/1.1/DTD/svg11.dtd" [
	<!ENTITY ns_flows "http://ns.adobe.com/Flows/1.0/">
	<!ENTITY ns_extend "http://ns.adobe.com/Extensibility/1.0/">
	<!ENTITY ns_ai "http://ns.adobe.com/AdobeIllustrator/10.0/">
	<!ENTITY ns_graphs "http://ns.adobe.com/Graphs/1.0/">
]>
<svg version="1.1" id="Layer_1" xmlns:x="&ns_extend;" xmlns:i="&ns_ai;" xmlns:graph="&ns_graphs;"
	 xmlns="http://www.w3.org/2000/svg" xmlns:xlink="http://www.w3.org/1999/xlink" xmlns:a="http://ns.adobe.com/AdobeSVGViewerExtensions/3.0/"
	 x="0px" y="0px" width="800px" height="800px" viewBox="0 0 800 800" enable-background="new 0 0 800 800" xml:space="preserve">
<rect y="-0.001" display="none" fill="#222222" width="800" height="800.001"/>
<text transform="matrix(0.9276 0.3735 -0.3735 0.9276 315.8447 559.9619)" fill="#333333" font-family="'OpenSans-Bold'" font-size="28.2247"> </text>
<text transform="matrix(0.8857 -0.4643 0.4643 0.8857 402.4482 556.2422)" fill="#333333" font-family="'OpenSans-Bold'" font-size="28.2246"> </text>
<g>
	<g>
		<path fill="#FFFFFF" d="M401.024,766.428c-97.876,0-189.895-38.116-259.104-107.325C72.711,589.895,34.595,497.876,34.595,399.999
			c0-97.875,38.116-189.892,107.325-259.102c69.21-69.21,161.228-107.326,259.104-107.326s189.894,38.116,259.102,107.326
			c69.209,69.21,107.324,161.228,107.324,259.102c0,97.877-38.115,189.896-107.324,259.104
			C590.919,728.312,498.9,766.428,401.024,766.428z M401.024,41.941c-95.64,0-185.556,37.245-253.185,104.875
			C80.211,214.445,42.966,304.361,42.966,399.999c0,95.642,37.245,185.558,104.874,253.185
			c67.628,67.629,157.545,104.874,253.185,104.874c95.641,0,185.557-37.245,253.183-104.874
			c67.629-67.627,104.873-157.543,104.873-253.185c0-95.638-37.244-185.554-104.873-253.183
			C586.581,79.187,496.664,41.941,401.024,41.941z"/>
		<path fill="#FFFFFF" d="M401.024,717.436c-84.79,0-164.503-33.021-224.458-92.976c-59.956-59.956-92.975-139.67-92.975-224.461
			c0-84.79,33.019-164.505,92.975-224.461c59.955-59.956,139.669-92.975,224.458-92.975c84.79,0,164.504,33.019,224.46,92.975
			c59.954,59.956,92.973,139.671,92.973,224.461c0,84.791-33.019,164.505-92.973,224.461
			C565.528,684.415,485.814,717.436,401.024,717.436z M401.024,84.956c-84.15,0-163.264,32.77-222.768,92.273
			c-59.504,59.504-92.274,138.62-92.274,222.77c0,84.153,32.77,163.267,92.274,222.77c59.504,59.505,138.617,92.274,222.768,92.274
			c84.151,0,163.265-32.77,222.768-92.274c59.504-59.503,92.274-138.616,92.274-222.77c0-84.151-32.771-163.266-92.274-222.77
			C564.289,117.726,485.176,84.956,401.024,84.956z"/>
		<g>
			<path fill="#FFFFFF" d="M305.509,169.89l-4.214,2.267l-11.016-20.45l11.578-6.233l1.915,3.553l-7.364,3.965l2.84,5.274
				l6.853-3.689l1.906,3.539l-6.853,3.69L305.509,169.89z"/>
			<path fill="#FFFFFF" d="M331.239,145.505c1.45,3.561,1.691,6.653,0.726,9.274c-0.966,2.623-3.077,4.596-6.333,5.919
				s-6.147,1.383-8.67,0.179c-2.522-1.204-4.512-3.597-5.969-7.177c-1.458-3.581-1.696-6.67-0.716-9.271
				c0.981-2.6,3.104-4.562,6.371-5.89c3.266-1.328,6.152-1.391,8.656-0.191C327.806,139.548,329.786,141.934,331.239,145.505z
				 M315.728,151.809c0.979,2.404,2.167,4.031,3.562,4.881c1.396,0.851,2.991,0.911,4.784,0.182c3.595-1.46,4.408-4.61,2.441-9.446
				c-1.973-4.847-4.747-6.544-8.324-5.09c-1.793,0.729-2.895,1.89-3.31,3.481C314.468,147.407,314.75,149.405,315.728,151.809z"/>
			<path fill="#FFFFFF" d="M351.558,127.848l3.885,14.518c0.444,1.657,0.465,3.208,0.066,4.652
				c-0.398,1.444-1.201,2.683-2.408,3.717c-1.208,1.034-2.755,1.804-4.646,2.308c-2.851,0.76-5.262,0.612-7.235-0.446
				c-1.973-1.058-3.302-2.871-3.99-5.439l-3.868-14.456l4.687-1.25l3.675,13.736c0.461,1.729,1.146,2.907,2.049,3.531
				c0.904,0.625,2.148,0.726,3.737,0.302c1.536-0.409,2.542-1.112,3.018-2.111c0.473-0.999,0.479-2.367,0.013-4.106l-3.665-13.705
				L351.558,127.848z"/>
			<path fill="#FFFFFF" d="M366.003,139.85l1.298,8.816l-4.814,0.704l-3.384-22.976l6.617-0.967
				c3.084-0.451,5.451-0.216,7.098,0.704c1.65,0.921,2.644,2.54,2.984,4.854c0.198,1.352,0.009,2.608-0.572,3.769
				c-0.58,1.161-1.498,2.137-2.756,2.931c4.176,4.667,6.895,7.678,8.151,9.035l-5.342,0.781l-6.718-8.023L366.003,139.85z
				 M365.42,135.889l1.553-0.227c1.522-0.223,2.606-0.644,3.255-1.263c0.65-0.619,0.894-1.479,0.731-2.579
				c-0.161-1.09-0.645-1.812-1.453-2.164s-1.988-0.415-3.542-0.189l-1.459,0.213L365.42,135.889z"/>
			<path fill="#FFFFFF" d="M405.088,146.299l-1.628-5.54l-8.367-0.067l-1.699,5.514l-5.244-0.042l8.257-23.249l5.949,0.046
				l7.974,23.38L405.088,146.299z M399.511,121.175c-0.656-0.471-1.619-1.233-2.888-2.287c-1.27-1.053-2.258-1.931-2.965-2.636
				l0.003-0.333l5.369,0.043c0.652,1.075,1.87,2.679,3.656,4.81l-0.003,0.429L399.511,121.175z M402.327,136.621
				c-1.505-5.021-2.353-7.86-2.541-8.518c-0.188-0.658-0.324-1.178-0.406-1.56c-0.354,1.353-1.366,4.695-3.035,10.029
				L402.327,136.621z"/>
			<path fill="#FFFFFF" d="M424.354,124.545l7.052,1.145c3.213,0.522,5.472,1.363,6.773,2.524c1.306,1.161,1.793,2.75,1.468,4.767
				c-0.222,1.368-0.718,2.441-1.495,3.215c-0.776,0.775-1.708,1.166-2.788,1.172l-0.026,0.157c1.384,0.557,2.321,1.332,2.813,2.323
				c0.493,0.991,0.622,2.224,0.384,3.698c-0.337,2.09-1.345,3.6-3.024,4.528c-1.684,0.928-3.805,1.184-6.367,0.768l-8.478-1.377
				L424.354,124.545z M427.076,138.259l-0.96,5.973l3.13,0.508c1.322,0.216,2.34,0.118,3.053-0.293
				c0.712-0.409,1.154-1.142,1.324-2.197c0.305-1.902-0.885-3.071-3.57-3.508L427.076,138.259z M427.698,134.402l2.789,0.454
				c1.304,0.212,2.276,0.161,2.927-0.153c0.65-0.312,1.05-0.939,1.2-1.879c0.142-0.878-0.074-1.559-0.647-2.044
				c-0.574-0.484-1.549-0.838-2.922-1.062l-2.527-0.41L427.698,134.402z"/>
			<path fill="#FFFFFF" d="M464.567,145.555c-1.051,3.695-2.766,6.276-5.143,7.743c-2.376,1.467-5.255,1.716-8.637,0.748
				c-3.381-0.968-5.696-2.704-6.941-5.207c-1.247-2.505-1.341-5.615-0.283-9.33c1.057-3.716,2.772-6.293,5.148-7.733
				c2.375-1.439,5.256-1.674,8.649-0.703c3.393,0.971,5.704,2.701,6.938,5.19C465.535,138.752,465.625,141.85,464.567,145.555z
				 M448.461,140.944c-0.711,2.494-0.778,4.506-0.2,6.036c0.575,1.531,1.795,2.562,3.658,3.096c3.731,1.068,6.314-0.907,7.743-5.926
				c1.433-5.028,0.292-8.074-3.423-9.137c-1.861-0.533-3.446-0.301-4.752,0.695C450.18,136.705,449.171,138.451,448.461,140.944z"/>
			<path fill="#FFFFFF" d="M465.284,158.467l8.365-21.648l4.537,1.76l-8.363,21.649L465.284,158.467z"/>
			<path fill="#FFFFFF" d="M489.835,162.216c-0.896,1.894-2.272,3.068-4.137,3.521s-3.997,0.109-6.4-1.028
				c-2.216-1.049-3.976-2.397-5.281-4.046l1.951-4.134c1.101,1.294,2.078,2.301,2.927,3.019c0.845,0.717,1.674,1.266,2.477,1.647
				c0.966,0.457,1.795,0.621,2.487,0.492c0.69-0.13,1.21-0.562,1.559-1.3c0.195-0.41,0.254-0.831,0.178-1.259
				c-0.074-0.427-0.264-0.895-0.564-1.399c-0.302-0.505-0.972-1.404-2.02-2.696c-0.983-1.203-1.66-2.232-2.032-3.087
				c-0.374-0.855-0.574-1.741-0.605-2.657c-0.031-0.916,0.186-1.867,0.65-2.854c0.876-1.856,2.187-3.021,3.934-3.494
				c1.746-0.473,3.717-0.19,5.913,0.85c1.078,0.51,2.046,1.127,2.903,1.849c0.856,0.722,1.71,1.57,2.559,2.546l-3.051,2.786
				c-0.892-0.983-1.656-1.737-2.294-2.262c-0.639-0.524-1.308-0.952-2.008-1.284c-0.833-0.395-1.563-0.5-2.193-0.319
				c-0.629,0.182-1.094,0.588-1.393,1.22c-0.186,0.392-0.257,0.777-0.215,1.155c0.041,0.377,0.195,0.794,0.458,1.253
				c0.265,0.458,0.963,1.39,2.098,2.792c1.495,1.856,2.384,3.427,2.656,4.71C490.666,159.521,490.479,160.847,489.835,162.216z"/>
		</g>
		<g>
			<path fill="#FFFFFF" d="M315.582,642.06c-1.181,2.199-2.766,3.517-4.75,3.949c-1.985,0.432-4.231-0.028-6.739-1.381l-1.838-0.99
				l-3.904,7.271l-4.286-2.312l10.977-20.448l6.456,3.483c2.452,1.321,4.03,2.862,4.733,4.616
				C316.933,638.006,316.718,639.943,315.582,642.06z M304.163,640.084l1.41,0.761c1.317,0.71,2.445,0.979,3.382,0.806
				c0.937-0.174,1.677-0.765,2.216-1.773c0.546-1.015,0.674-1.913,0.388-2.694c-0.29-0.78-1.019-1.485-2.189-2.117l-1.95-1.053
				L304.163,640.084z"/>
			<path fill="#FFFFFF" d="M313.158,658.316l9.177-21.318l4.468,1.934l-9.176,21.319L313.158,658.316z"/>
			<path fill="#FFFFFF" d="M338.168,667.7l-16.175-5.501l1.022-3.022l15.528-11.576l-10.139-3.448l1.301-3.852l15.609,5.311
				l-1.016,3.008l-15.519,11.596l10.689,3.636L338.168,667.7z"/>
			<path fill="#FFFFFF" d="M357.705,672.312l-16.656-3.792l0.703-3.114l14.244-13.129l-10.441-2.374l0.894-3.969l16.074,3.661
				l-0.699,3.099l-14.23,13.146l11.006,2.506L357.705,672.312z"/>
			<path fill="#FFFFFF" d="M376.918,674.692l-1.066-5.677l-8.316-0.905l-2.242,5.317l-5.211-0.567l10.533-22.311l5.914,0.645
				l5.6,24.066L376.918,674.692z M375.137,664.784c-0.995-5.147-1.554-8.059-1.676-8.731c-0.124-0.675-0.207-1.206-0.249-1.595
				c-0.488,1.312-1.828,4.538-4.02,9.678L375.137,664.784z"/>
			<path fill="#FFFFFF" d="M393.116,668.359l-0.007-3.971l8.426-0.005l0.009,3.974L393.116,668.359z"/>
			<path fill="#FFFFFF" d="M428.859,655.445c0.408,2.465-0.039,4.479-1.345,6.034c-1.307,1.56-3.362,2.569-6.169,3.032l-2.059,0.338
				l1.353,8.153l-4.8,0.791l-3.804-22.922l7.231-1.191c2.744-0.452,4.932-0.198,6.56,0.764
				C427.455,651.405,428.464,653.07,428.859,655.445z M418.627,660.868l1.576-0.261c1.477-0.242,2.531-0.72,3.167-1.431
				c0.635-0.713,0.859-1.632,0.672-2.762c-0.188-1.139-0.635-1.929-1.339-2.373c-0.706-0.441-1.712-0.553-3.023-0.338l-2.184,0.359
				L418.627,660.868z"/>
			<path fill="#FFFFFF" d="M441.719,642.473c-1.853-0.491-3.286-1.046-4.306-1.668c-0.544,1.05-1.435,2.279-2.671,3.685l-3.06,0.885
				l-0.121-0.414c1.343-2.472,2.185-4.375,2.527-5.71l5.38-1.554c0.465,0.438,1.214,1.003,2.246,1.691
				c1.033,0.688,2.014,1.284,2.944,1.787l0.119,0.413L441.719,642.473z M450.828,665.962l-3.137-4.85l-8.034,2.32l-0.058,5.773
				l-5.035,1.458l1.286-24.66l5.711-1.651l14.3,20.155L450.828,665.962z M445.426,657.466c-2.87-4.388-4.492-6.87-4.861-7.446
				c-0.369-0.577-0.646-1.039-0.832-1.382c0.046,1.399,0.029,4.895-0.048,10.486L445.426,657.466z"/>
			<path fill="#FFFFFF" d="M468.164,659.379l-4.492,1.867l-7.348-17.668l-5.751,2.391L449,642.183l15.99-6.65l1.574,3.787
				l-5.749,2.391L468.164,659.379z"/>
			<path fill="#FFFFFF" d="M489.942,648.479l-11.625,6.271l-11.023-20.457l11.626-6.271l1.914,3.556l-7.345,3.962l2.421,4.49
				l6.834-3.686l1.913,3.553l-6.834,3.688l2.845,5.274l7.345-3.961L489.942,648.479z"/>
			<path fill="#FFFFFF" d="M502.834,632.317c1.17,1.74,1.474,3.529,0.913,5.364c-0.562,1.835-1.947,3.493-4.149,4.979
				c-2.029,1.366-4.086,2.188-6.169,2.465l-2.553-3.796c1.673-0.285,3.036-0.608,4.085-0.97c1.047-0.362,1.94-0.791,2.678-1.287
				c0.887-0.595,1.449-1.224,1.691-1.887c0.241-0.66,0.135-1.329-0.318-2.007c-0.254-0.377-0.585-0.644-0.992-0.798
				c-0.405-0.154-0.903-0.232-1.488-0.234c-0.588,0-1.702,0.118-3.345,0.356c-1.534,0.228-2.765,0.284-3.689,0.165
				c-0.923-0.117-1.786-0.4-2.588-0.843c-0.804-0.444-1.507-1.117-2.116-2.023c-1.149-1.706-1.478-3.431-0.995-5.176
				c0.484-1.743,1.733-3.294,3.745-4.648c0.99-0.666,2.012-1.183,3.071-1.55c1.058-0.368,2.221-0.667,3.488-0.896l0.839,4.056
				c-1.3,0.263-2.336,0.533-3.112,0.813s-1.487,0.635-2.127,1.067c-0.764,0.515-1.229,1.088-1.394,1.724
				c-0.165,0.634-0.052,1.242,0.337,1.823c0.242,0.359,0.537,0.62,0.881,0.776c0.345,0.157,0.783,0.239,1.312,0.248
				c0.528,0.008,1.685-0.114,3.466-0.369c2.357-0.337,4.157-0.293,5.398,0.128C500.944,630.222,501.987,631.061,502.834,632.317z"/>
		</g>
	</g>
	<g>
		<g>
			<path fill="#EF4538" d="M430.612,241.841v-54.487h-59.364v54.487c-74.732,13.936-131.322,79.45-131.322,158.227
				c0,0.418,0.03,0.83,0.03,1.248h66.84c0-51.987,42.143-94.134,94.137-94.134c51.986,0,94.136,42.147,94.136,94.134h66.833
				c0.007-0.418,0.034-0.83,0.034-1.248C561.937,321.291,505.349,255.776,430.612,241.841"/>
		</g>
		<g>
			<g>
				<path fill="#FFFFFF" d="M247.579,526.885h-13.494v-64.679h37.073v11.235h-23.579v16.679h21.941v11.192h-21.941V526.885z"/>
				<path fill="#FFFFFF" d="M345.517,462.206v41.851c0,4.777-1.07,8.965-3.208,12.564c-2.139,3.597-5.228,6.355-9.269,8.271
					c-4.042,1.916-8.818,2.877-14.333,2.877c-8.316,0-14.776-2.134-19.376-6.395c-4.601-4.26-6.901-10.092-6.901-17.494v-41.675
					h13.67v39.596c0,4.983,1.002,8.64,3.007,10.97c2.006,2.328,5.323,3.495,9.955,3.495c4.482,0,7.733-1.171,9.755-3.518
					c2.02-2.344,3.029-6.023,3.029-11.036v-39.507H345.517z"/>
			</g>
			<g>
				<path fill="#FFFFFF" d="M429.15,494.456c0,10.705-2.654,18.934-7.965,24.685c-5.308,5.752-12.917,8.629-22.828,8.629
					c-9.909,0-17.517-2.877-22.826-8.629c-5.309-5.751-7.963-14.007-7.963-24.773c0-10.765,2.66-18.986,7.985-24.662
					c5.323-5.679,12.955-8.517,22.893-8.517s17.542,2.86,22.805,8.583C426.517,475.493,429.15,483.722,429.15,494.456z
					 M381.946,494.456c0,7.227,1.371,12.67,4.115,16.324c2.744,3.656,6.843,5.486,12.297,5.486c10.943,0,16.414-7.271,16.414-21.811
					c0-14.57-5.441-21.854-16.324-21.854c-5.457,0-9.571,1.836-12.343,5.507C383.333,481.782,381.946,487.229,381.946,494.456z"/>
			</g>
			<g>
				<path fill="#FFFFFF" d="M479.095,472.691c-5.161,0-9.156,1.939-11.987,5.818c-2.831,3.876-4.247,9.282-4.247,16.212
					c0,14.423,5.411,21.632,16.234,21.632c4.542,0,10.043-1.135,16.503-3.405v11.503c-5.31,2.212-11.237,3.318-17.783,3.318
					c-9.411,0-16.607-2.854-21.591-8.56c-4.983-5.708-7.476-13.9-7.476-24.578c0-6.724,1.224-12.614,3.673-17.673
					c2.446-5.057,5.964-8.935,10.549-11.634c4.586-2.698,9.962-4.048,16.125-4.048c6.283,0,12.595,1.519,18.936,4.556l-4.423,11.148
					c-2.42-1.15-4.853-2.151-7.301-3.007S481.455,472.691,479.095,472.691z"/>
				<path fill="#FFFFFF" d="M577.032,494.456c0,10.705-2.654,18.934-7.963,24.685c-5.31,5.752-12.919,8.629-22.83,8.629
					c-9.908,0-17.517-2.877-22.826-8.629c-5.308-5.751-7.963-14.007-7.963-24.773c0-10.765,2.661-18.986,7.985-24.662
					c5.323-5.679,12.955-8.517,22.895-8.517s17.54,2.86,22.805,8.583C574.4,475.493,577.032,483.722,577.032,494.456z
					 M529.828,494.456c0,7.227,1.371,12.67,4.114,16.324c2.743,3.656,6.841,5.486,12.297,5.486c10.942,0,16.414-7.271,16.414-21.811
					c0-14.57-5.439-21.854-16.323-21.854c-5.459,0-9.572,1.836-12.345,5.507C531.214,481.782,529.828,487.229,529.828,494.456z"/>
			</g>
		</g>
		<rect x="226.086" y="397.423" fill="#FFFFFF" width="349.69" height="9.088"/>
		<rect x="226.086" y="562.579" fill="#FFFFFF" width="349.69" height="9.088"/>
		<g>
			<path fill="#EF4538" d="M392.059,317.999c0,0,21.45,28.273-17.816,59.406c-39.27,31.128,12.362,63.852,17.816,67.854
				c0,0-16.726-29.092-5.455-45.815c11.272-16.726,44.359-40.972,21.815-65.045L392.059,317.999z"/>
			<path fill="#EF4538" d="M433.508,385.689c0,0,4.368,20.789-15.992,35.336c-20.362,14.54-10.188,24.232-10.188,24.232
				s8.543-10.272,12.41-14.117C425.287,425.62,440.783,409.685,433.508,385.689"/>
			<path fill="#EF4538" d="M421.147,365.128c0,0,5.178,19.194-18.826,31.166c-24.001,11.976-5.347,38.092-3.472,41.156
				c0,0-2.806-18.963,5.45-26.832c8.256-7.861,28.131-16.825,21.7-33.787L421.147,365.128z"/>
		</g>
	</g>
</g>
</svg>
