<svg xmlns="http://www.w3.org/2000/svg" width="1920" height="1080"><path d="M-341,-318L156,-309L537,-353Z" fill="#2c2c2c" stroke="#2c2c2c" stroke-width="1.51"/><path d="M537,-353L791,-339L976,-345Z" fill="#1b1b1b" stroke="#1b1b1b" stroke-width="1.51"/><path d="M1142,1372L316,1412L1573,1413Z" fill="#202020" stroke="#202020" stroke-width="1.51"/><path d="M976,-345L1368,-316L2025,-317Z" fill="#1e1e1e" stroke="#1e1e1e" stroke-width="1.51"/><path d="M1610,-272L1788,-267L2025,-317Z" fill="#2e2e2e" stroke="#2e2e2e" stroke-width="1.51"/><path d="M1368,-316L1610,-272L2025,-317Z" fill="#272727" stroke="#272727" stroke-width="1.51"/><path d="M1964,1344L1833,1400L2170,1330Z" fill="#282828" stroke="#282828" stroke-width="1.51"/><path d="M2175,512L1973,716L2181,785Z" fill="#242424" stroke="#242424" stroke-width="1.51"/><path d="M2181,785L2167,1001L2232,1148Z" fill="#232323" stroke="#232323" stroke-width="1.51"/><path d="M2038,171L2049,337L2248,373Z" fill="#1f1f1f" stroke="#1f1f1f" stroke-width="1.51"/><path d="M2181,785L2232,1148L2248,373Z" fill="#1c1c1c" stroke="#1c1c1c" stroke-width="1.51"/><path d="M2175,512L2181,785L2248,373Z" fill="#202020" stroke="#202020" stroke-width="1.51"/><path d="M2240,-104L1963,-39L2262,122Z" fill="#2c2c2c" stroke="#2c2c2c" stroke-width="1.51"/><path d="M1963,-39L2038,171L2262,122Z" fill="#292929" stroke="#292929" stroke-width="1.51"/><path d="M2038,171L2248,373L2262,122Z" fill="#191919" stroke="#191919" stroke-width="1.51"/><path d="M2248,373L2232,1148L2262,122Z" fill="#1d1d1d" stroke="#1d1d1d" stroke-width="1.51"/><path d="M2216,-259L2025,-317L2240,-104Z" fill="#242424" stroke="#242424" stroke-width="1.51"/><path d="M2025,-317L1963,-39L2240,-104Z" fill="#313131" stroke="#313131" stroke-width="1.51"/><path d="M2049,337L2175,512L2248,373Z" fill="#1f1f1f" stroke="#1f1f1f" stroke-width="1.51"/><path d="M1958,1182L2170,1330L2232,1148Z" fill="#2c2c2c" stroke="#2c2c2c" stroke-width="1.51"/><path d="M1998,521L1973,716L2175,512Z" fill="#292929" stroke="#292929" stroke-width="1.51"/><path d="M1990,932L2167,1001L2181,785Z" fill="#242424" stroke="#242424" stroke-width="1.51"/><path d="M2167,1001L1958,1182L2232,1148Z" fill="#2e2e2e" stroke="#2e2e2e" stroke-width="1.51"/><path d="M1990,932L1958,1182L2167,1001Z" fill="#2f2f2f" stroke="#2f2f2f" stroke-width="1.51"/><path d="M1958,1182L1964,1344L2170,1330Z" fill="#2b2b2b" stroke="#2b2b2b" stroke-width="1.51"/><path d="M2049,337L1998,521L2175,512Z" fill="#262626" stroke="#262626" stroke-width="1.51"/><path d="M1973,716L1990,932L2181,785Z" fill="#262626" stroke="#262626" stroke-width="1.51"/><path d="M504,1356L316,1412L700,1329Z" fill="#1b1b1b" stroke="#1b1b1b" stroke-width="1.51"/><path d="M700,1329L316,1412L1142,1372Z" fill="#1e1e1e" stroke="#1e1e1e" stroke-width="1.51"/><path d="M1788,-267L1963,-39L2025,-317Z" fill="#353535" stroke="#353535" stroke-width="1.51"/><path d="M1963,-39L1810,65L2038,171Z" fill="#353535" stroke="#353535" stroke-width="1.51"/><path d="M2038,171L1837,306L2049,337Z" fill="#282828" stroke="#282828" stroke-width="1.51"/><path d="M1837,306L1998,521L2049,337Z" fill="#2b2b2b" stroke="#2b2b2b" stroke-width="1.51"/><path d="M1774,1141L1958,1182L1990,932Z" fill="#3b3b3b" stroke="#3b3b3b" stroke-width="1.51"/><path d="M1973,716L1797,767L1990,932Z" fill="#2f2f2f" stroke="#2f2f2f" stroke-width="1.51"/><path d="M1837,306L1805,512L1998,521Z" fill="#333333" stroke="#333333" stroke-width="1.51"/><path d="M1810,65L1837,306L2038,171Z" fill="#2f2f2f" stroke="#2f2f2f" stroke-width="1.51"/><path d="M1788,-267L1751,-120L1963,-39Z" fill="#3e3e3e" stroke="#3e3e3e" stroke-width="1.51"/><path d="M1805,512L1973,716L1998,521Z" fill="#313131" stroke="#313131" stroke-width="1.51"/><path d="M1775,914L1774,1141L1990,932Z" fill="#383838" stroke="#383838" stroke-width="1.51"/><path d="M1797,767L1775,914L1990,932Z" fill="#323232" stroke="#323232" stroke-width="1.51"/><path d="M1805,512L1797,767L1973,716Z" fill="#343434" stroke="#343434" stroke-width="1.51"/><path d="M1774,1141L1833,1400L1958,1182Z" fill="#3a3a3a" stroke="#3a3a3a" stroke-width="1.51"/><path d="M1958,1182L1833,1400L1964,1344Z" fill="#313131" stroke="#313131" stroke-width="1.51"/><path d="M1751,-120L1810,65L1963,-39Z" fill="#404040" stroke="#404040" stroke-width="1.51"/><path d="M1621,971L1774,1141L1775,914Z" fill="#343434" stroke="#343434" stroke-width="1.51"/><path d="M1587,747L1797,767L1805,512Z" fill="#2f2f2f" stroke="#2f2f2f" stroke-width="1.51"/><path d="M1587,498L1587,747L1805,512Z" fill="#2e2e2e" stroke="#2e2e2e" stroke-width="1.51"/><path d="M1562,81L1637,359L1810,65Z" fill="#2b2b2b" stroke="#2b2b2b" stroke-width="1.51"/><path d="M1774,1141L1554,1206L1833,1400Z" fill="#343434" stroke="#343434" stroke-width="1.51"/><path d="M1554,1206L1573,1413L1833,1400Z" fill="#292929" stroke="#292929" stroke-width="1.51"/><path d="M1810,65L1637,359L1837,306Z" fill="#2a2a2a" stroke="#2a2a2a" stroke-width="1.51"/><path d="M1637,359L1805,512L1837,306Z" fill="#2e2e2e" stroke="#2e2e2e" stroke-width="1.51"/><path d="M1587,747L1775,914L1797,767Z" fill="#2d2d2d" stroke="#2d2d2d" stroke-width="1.51"/><path d="M1637,359L1587,498L1805,512Z" fill="#2d2d2d" stroke="#2d2d2d" stroke-width="1.51"/><path d="M1751,-120L1562,81L1810,65Z" fill="#383838" stroke="#383838" stroke-width="1.51"/><path d="M972,1331L700,1329L1142,1372Z" fill="#252525" stroke="#252525" stroke-width="1.51"/><path d="M1398,1346L1142,1372L1573,1413Z" fill="#1f1f1f" stroke="#1f1f1f" stroke-width="1.51"/><path d="M1582,-127L1562,81L1751,-120Z" fill="#3a3a3a" stroke="#3a3a3a" stroke-width="1.51"/><path d="M1610,-272L1751,-120L1788,-267Z" fill="#323232" stroke="#323232" stroke-width="1.51"/><path d="M1587,747L1621,971L1775,914Z" fill="#2b2b2b" stroke="#2b2b2b" stroke-width="1.51"/><path d="M1621,971L1554,1206L1774,1141Z" fill="#363636" stroke="#363636" stroke-width="1.51"/><path d="M1610,-272L1582,-127L1751,-120Z" fill="#343434" stroke="#343434" stroke-width="1.51"/><path d="M976,-345L1145,-294L1368,-316Z" fill="#1f1f1f" stroke="#1f1f1f" stroke-width="1.51"/><path d="M1404,105L1368,307L1562,81Z" fill="#232323" stroke="#232323" stroke-width="1.51"/><path d="M1587,498L1431,533L1587,747Z" fill="#292929" stroke="#292929" stroke-width="1.51"/><path d="M1328,764L1347,999L1587,747Z" fill="#222222" stroke="#222222" stroke-width="1.51"/><path d="M1406,1161L1554,1206L1621,971Z" fill="#333333" stroke="#333333" stroke-width="1.51"/><path d="M1347,999L1406,1161L1621,971Z" fill="#2d2d2d" stroke="#2d2d2d" stroke-width="1.51"/><path d="M1587,747L1347,999L1621,971Z" fill="#282828" stroke="#282828" stroke-width="1.51"/><path d="M1368,307L1587,498L1637,359Z" fill="#262626" stroke="#262626" stroke-width="1.51"/><path d="M1562,81L1368,307L1637,359Z" fill="#222222" stroke="#222222" stroke-width="1.51"/><path d="M1554,1206L1398,1346L1573,1413Z" fill="#262626" stroke="#262626" stroke-width="1.51"/><path d="M1364,-82L1562,81L1582,-127Z" fill="#353535" stroke="#353535" stroke-width="1.51"/><path d="M1368,307L1431,533L1587,498Z" fill="#252525" stroke="#252525" stroke-width="1.51"/><path d="M1368,-316L1582,-127L1610,-272Z" fill="#292929" stroke="#292929" stroke-width="1.51"/><path d="M1364,-82L1404,105L1562,81Z" fill="#2d2d2d" stroke="#2d2d2d" stroke-width="1.51"/><path d="M1368,-316L1364,-82L1582,-127Z" fill="#2d2d2d" stroke="#2d2d2d" stroke-width="1.51"/><path d="M1431,533L1328,764L1587,747Z" fill="#252525" stroke="#252525" stroke-width="1.51"/><path d="M1406,1161L1398,1346L1554,1206Z" fill="#2d2d2d" stroke="#2d2d2d" stroke-width="1.51"/><path d="M1165,1222L1398,1346L1406,1161Z" fill="#2c2c2c" stroke="#2c2c2c" stroke-width="1.51"/><path d="M1368,307L1175,521L1431,533Z" fill="#252525" stroke="#252525" stroke-width="1.51"/><path d="M1175,521L1328,764L1431,533Z" fill="#262626" stroke="#262626" stroke-width="1.51"/><path d="M1328,764L1204,776L1347,999Z" fill="#232323" stroke="#232323" stroke-width="1.51"/><path d="M1186,302L1175,521L1368,307Z" fill="#232323" stroke="#232323" stroke-width="1.51"/><path d="M1198,-84L1364,-82L1368,-316Z" fill="#2f2f2f" stroke="#2f2f2f" stroke-width="1.51"/><path d="M1145,-294L1198,-84L1368,-316Z" fill="#282828" stroke="#282828" stroke-width="1.51"/><path d="M1364,-82L1198,-84L1404,105Z" fill="#313131" stroke="#313131" stroke-width="1.51"/><path d="M1198,-84L1142,80L1404,105Z" fill="#2d2d2d" stroke="#2d2d2d" stroke-width="1.51"/><path d="M1186,302L1368,307L1404,105Z" fill="#1f1f1f" stroke="#1f1f1f" stroke-width="1.51"/><path d="M1142,80L1186,302L1404,105Z" fill="#242424" stroke="#242424" stroke-width="1.51"/><path d="M1347,999L1165,1222L1406,1161Z" fill="#303030" stroke="#303030" stroke-width="1.51"/><path d="M1204,776L1160,965L1347,999Z" fill="#262626" stroke="#262626" stroke-width="1.51"/><path d="M1165,1222L1142,1372L1398,1346Z" fill="#252525" stroke="#252525" stroke-width="1.51"/><path d="M1175,521L1204,776L1328,764Z" fill="#252525" stroke="#252525" stroke-width="1.51"/><path d="M1160,965L1165,1222L1347,999Z" fill="#2e2e2e" stroke="#2e2e2e" stroke-width="1.51"/><path d="M951,724L918,918L1160,965Z" fill="#262626" stroke="#262626" stroke-width="1.51"/><path d="M1160,965L919,1180L1165,1222Z" fill="#323232" stroke="#323232" stroke-width="1.51"/><path d="M915,550L951,724L1175,521Z" fill="#292929" stroke="#292929" stroke-width="1.51"/><path d="M1142,80L998,112L1186,302Z" fill="#252525" stroke="#252525" stroke-width="1.51"/><path d="M975,366L1175,521L1186,302Z" fill="#252525" stroke="#252525" stroke-width="1.51"/><path d="M1145,-294L1009,-120L1198,-84Z" fill="#303030" stroke="#303030" stroke-width="1.51"/><path d="M1009,-120L1142,80L1198,-84Z" fill="#343434" stroke="#343434" stroke-width="1.51"/><path d="M1175,521L951,724L1204,776Z" fill="#272727" stroke="#272727" stroke-width="1.51"/><path d="M951,724L1160,965L1204,776Z" fill="#252525" stroke="#252525" stroke-width="1.51"/><path d="M998,112L975,366L1186,302Z" fill="#222222" stroke="#222222" stroke-width="1.51"/><path d="M918,918L919,1180L1160,965Z" fill="#2d2d2d" stroke="#2d2d2d" stroke-width="1.51"/><path d="M972,1331L1142,1372L1165,1222Z" fill="#272727" stroke="#272727" stroke-width="1.51"/><path d="M975,366L915,550L1175,521Z" fill="#282828" stroke="#282828" stroke-width="1.51"/><path d="M1009,-120L998,112L1142,80Z" fill="#303030" stroke="#303030" stroke-width="1.51"/><path d="M919,1180L972,1331L1165,1222Z" fill="#2e2e2e" stroke="#2e2e2e" stroke-width="1.51"/><path d="M-341,-318L-69,-288L156,-309Z" fill="#282828" stroke="#282828" stroke-width="1.51"/><path d="M976,-345L1009,-120L1145,-294Z" fill="#272727" stroke="#272727" stroke-width="1.51"/><path d="M918,918L803,1010L919,1180Z" fill="#2d2d2d" stroke="#2d2d2d" stroke-width="1.51"/><path d="M759,361L975,366L998,112Z" fill="#222222" stroke="#222222" stroke-width="1.51"/><path d="M697,130L759,361L998,112Z" fill="#212121" stroke="#212121" stroke-width="1.51"/><path d="M976,-345L791,-339L1009,-120Z" fill="#262626" stroke="#262626" stroke-width="1.51"/><path d="M791,-339L765,-56L1009,-120Z" fill="#2f2f2f" stroke="#2f2f2f" stroke-width="1.51"/><path d="M765,-56L998,112L1009,-120Z" fill="#343434" stroke="#343434" stroke-width="1.51"/><path d="M765,-56L697,130L998,112Z" fill="#2b2b2b" stroke="#2b2b2b" stroke-width="1.51"/><path d="M759,361L799,542L915,550Z" fill="#262626" stroke="#262626" stroke-width="1.51"/><path d="M776,752L918,918L951,724Z" fill="#252525" stroke="#252525" stroke-width="1.51"/><path d="M919,1180L700,1329L972,1331Z" fill="#292929" stroke="#292929" stroke-width="1.51"/><path d="M759,361L915,550L975,366Z" fill="#252525" stroke="#252525" stroke-width="1.51"/><path d="M799,542L776,752L915,550Z" fill="#262626" stroke="#262626" stroke-width="1.51"/><path d="M915,550L776,752L951,724Z" fill="#272727" stroke="#272727" stroke-width="1.51"/><path d="M776,752L803,1010L918,918Z" fill="#252525" stroke="#252525" stroke-width="1.51"/><path d="M803,1010L715,1173L919,1180Z" fill="#313131" stroke="#313131" stroke-width="1.51"/><path d="M715,1173L700,1329L919,1180Z" fill="#2d2d2d" stroke="#2d2d2d" stroke-width="1.51"/><path d="M697,130L562,312L759,361Z" fill="#1e1e1e" stroke="#1e1e1e" stroke-width="1.51"/><path d="M593,724L568,984L776,752Z" fill="#212121" stroke="#212121" stroke-width="1.51"/><path d="M502,-123L765,-56L791,-339Z" fill="#2b2b2b" stroke="#2b2b2b" stroke-width="1.51"/><path d="M537,-353L502,-123L791,-339Z" fill="#202020" stroke="#202020" stroke-width="1.51"/><path d="M759,361L522,536L799,542Z" fill="#232323" stroke="#232323" stroke-width="1.51"/><path d="M593,724L776,752L799,542Z" fill="#242424" stroke="#242424" stroke-width="1.51"/><path d="M522,536L593,724L799,542Z" fill="#232323" stroke="#232323" stroke-width="1.51"/><path d="M776,752L568,984L803,1010Z" fill="#242424" stroke="#242424" stroke-width="1.51"/><path d="M568,984L715,1173L803,1010Z" fill="#2b2b2b" stroke="#2b2b2b" stroke-width="1.51"/><path d="M562,312L522,536L759,361Z" fill="#202020" stroke="#202020" stroke-width="1.51"/><path d="M502,-123L697,130L765,-56Z" fill="#2e2e2e" stroke="#2e2e2e" stroke-width="1.51"/><path d="M502,-123L507,132L697,130Z" fill="#282828" stroke="#282828" stroke-width="1.51"/><path d="M507,132L562,312L697,130Z" fill="#1e1e1e" stroke="#1e1e1e" stroke-width="1.51"/><path d="M506,1151L504,1356L700,1329Z" fill="#242424" stroke="#242424" stroke-width="1.51"/><path d="M506,1151L700,1329L715,1173Z" fill="#2b2b2b" stroke="#2b2b2b" stroke-width="1.51"/><path d="M568,984L506,1151L715,1173Z" fill="#2c2c2c" stroke="#2c2c2c" stroke-width="1.51"/><path d="M156,-309L378,-285L537,-353Z" fill="#212121" stroke="#212121" stroke-width="1.51"/><path d="M168,1371L-102,1399L316,1412Z" fill="#2c2c2c" stroke="#2c2c2c" stroke-width="1.51"/><path d="M319,545L303,792L522,536Z" fill="#272727" stroke="#272727" stroke-width="1.51"/><path d="M378,-285L502,-123L537,-353Z" fill="#212121" stroke="#212121" stroke-width="1.51"/><path d="M343,311L522,536L562,312Z" fill="#1f1f1f" stroke="#1f1f1f" stroke-width="1.51"/><path d="M522,536L303,792L593,724Z" fill="#212121" stroke="#212121" stroke-width="1.51"/><path d="M358,920L568,984L593,724Z" fill="#1f1f1f" stroke="#1f1f1f" stroke-width="1.51"/><path d="M303,792L358,920L593,724Z" fill="#232323" stroke="#232323" stroke-width="1.51"/><path d="M502,-123L383,-138L507,132Z" fill="#2f2f2f" stroke="#2f2f2f" stroke-width="1.51"/><path d="M507,132L371,171L562,312Z" fill="#1c1c1c" stroke="#1c1c1c" stroke-width="1.51"/><path d="M371,171L343,311L562,312Z" fill="#1f1f1f" stroke="#1f1f1f" stroke-width="1.51"/><path d="M358,920L506,1151L568,984Z" fill="#272727" stroke="#272727" stroke-width="1.51"/><path d="M358,920L350,1150L506,1151Z" fill="#2e2e2e" stroke="#2e2e2e" stroke-width="1.51"/><path d="M378,-285L383,-138L502,-123Z" fill="#2b2b2b" stroke="#2b2b2b" stroke-width="1.51"/><path d="M350,1150L504,1356L506,1151Z" fill="#2b2b2b" stroke="#2b2b2b" stroke-width="1.51"/><path d="M383,-138L371,171L507,132Z" fill="#2a2a2a" stroke="#2a2a2a" stroke-width="1.51"/><path d="M343,311L319,545L522,536Z" fill="#252525" stroke="#252525" stroke-width="1.51"/><path d="M350,1150L316,1412L504,1356Z" fill="#262626" stroke="#262626" stroke-width="1.51"/><path d="M92,380L147,539L319,545Z" fill="#313131" stroke="#313131" stroke-width="1.51"/><path d="M92,380L319,545L343,311Z" fill="#2b2b2b" stroke="#2b2b2b" stroke-width="1.51"/><path d="M168,1371L316,1412L350,1150Z" fill="#2c2c2c" stroke="#2c2c2c" stroke-width="1.51"/><path d="M133,963L350,1150L358,920Z" fill="#313131" stroke="#313131" stroke-width="1.51"/><path d="M107,-44L100,83L371,171Z" fill="#353535" stroke="#353535" stroke-width="1.51"/><path d="M107,-44L371,171L383,-138Z" fill="#363636" stroke="#363636" stroke-width="1.51"/><path d="M378,-285L156,-309L383,-138Z" fill="#2b2b2b" stroke="#2b2b2b" stroke-width="1.51"/><path d="M156,-309L107,-44L383,-138Z" fill="#383838" stroke="#383838" stroke-width="1.51"/><path d="M111,747L303,792L319,545Z" fill="#2d2d2d" stroke="#2d2d2d" stroke-width="1.51"/><path d="M147,539L111,747L319,545Z" fill="#313131" stroke="#313131" stroke-width="1.51"/><path d="M100,83L343,311L371,171Z" fill="#282828" stroke="#282828" stroke-width="1.51"/><path d="M100,83L92,380L343,311Z" fill="#2c2c2c" stroke="#2c2c2c" stroke-width="1.51"/><path d="M68,1203L168,1371L350,1150Z" fill="#373737" stroke="#373737" stroke-width="1.51"/><path d="M303,792L133,963L358,920Z" fill="#2c2c2c" stroke="#2c2c2c" stroke-width="1.51"/><path d="M133,963L68,1203L350,1150Z" fill="#3b3b3b" stroke="#3b3b3b" stroke-width="1.51"/><path d="M111,747L133,963L303,792Z" fill="#2f2f2f" stroke="#2f2f2f" stroke-width="1.51"/><path d="M-127,154L-140,284L92,380Z" fill="#2a2a2a" stroke="#2a2a2a" stroke-width="1.51"/><path d="M-127,154L92,380L100,83Z" fill="#303030" stroke="#303030" stroke-width="1.51"/><path d="M-61,496L111,747L147,539Z" fill="#383838" stroke="#383838" stroke-width="1.51"/><path d="M-69,-288L107,-44L156,-309Z" fill="#3b3b3b" stroke="#3b3b3b" stroke-width="1.51"/><path d="M68,1203L-102,1399L168,1371Z" fill="#363636" stroke="#363636" stroke-width="1.51"/><path d="M-127,961L-97,1188L68,1203Z" fill="#3b3b3b" stroke="#3b3b3b" stroke-width="1.51"/><path d="M-69,-288L-125,-90L107,-44Z" fill="#3e3e3e" stroke="#3e3e3e" stroke-width="1.51"/><path d="M-61,496L-101,727L111,747Z" fill="#333333" stroke="#333333" stroke-width="1.51"/><path d="M111,747L-127,961L133,963Z" fill="#363636" stroke="#363636" stroke-width="1.51"/><path d="M-127,961L68,1203L133,963Z" fill="#3d3d3d" stroke="#3d3d3d" stroke-width="1.51"/><path d="M92,380L-61,496L147,539Z" fill="#373737" stroke="#373737" stroke-width="1.51"/><path d="M-101,727L-127,961L111,747Z" fill="#2f2f2f" stroke="#2f2f2f" stroke-width="1.51"/><path d="M-125,-90L100,83L107,-44Z" fill="#424242" stroke="#424242" stroke-width="1.51"/><path d="M-125,-90L-127,154L100,83Z" fill="#373737" stroke="#373737" stroke-width="1.51"/><path d="M-97,1188L-102,1399L68,1203Z" fill="#353535" stroke="#353535" stroke-width="1.51"/><path d="M-140,284L-61,496L92,380Z" fill="#2f2f2f" stroke="#2f2f2f" stroke-width="1.51"/><path d="M-286,132L-127,154L-125,-90Z" fill="#2c2c2c" stroke="#2c2c2c" stroke-width="1.51"/><path d="M-254,1149L-326,1393L-102,1399Z" fill="#232323" stroke="#232323" stroke-width="1.51"/><path d="M-318,535L-292,725L-101,727Z" fill="#232323" stroke="#232323" stroke-width="1.51"/><path d="M-292,725L-127,961L-101,727Z" fill="#252525" stroke="#252525" stroke-width="1.51"/><path d="M-127,961L-249,1009L-97,1188Z" fill="#303030" stroke="#303030" stroke-width="1.51"/><path d="M-249,1009L-254,1149L-97,1188Z" fill="#303030" stroke="#303030" stroke-width="1.51"/><path d="M-254,1149L-102,1399L-97,1188Z" fill="#2f2f2f" stroke="#2f2f2f" stroke-width="1.51"/><path d="M-341,-318L-125,-90L-69,-288Z" fill="#282828" stroke="#282828" stroke-width="1.51"/><path d="M-140,284L-315,325L-61,496Z" fill="#242424" stroke="#242424" stroke-width="1.51"/><path d="M-315,325L-318,535L-61,496Z" fill="#222222" stroke="#222222" stroke-width="1.51"/><path d="M-318,535L-101,727L-61,496Z" fill="#292929" stroke="#292929" stroke-width="1.51"/><path d="M-292,725L-249,1009L-127,961Z" fill="#232323" stroke="#232323" stroke-width="1.51"/><path d="M-334,-50L-286,132L-125,-90Z" fill="#2c2c2c" stroke="#2c2c2c" stroke-width="1.51"/><path d="M-341,-318L-334,-50L-125,-90Z" fill="#2b2b2b" stroke="#2b2b2b" stroke-width="1.51"/><path d="M-286,132L-140,284L-127,154Z" fill="#222222" stroke="#222222" stroke-width="1.51"/><path d="M-286,132L-315,325L-140,284Z" fill="#1c1c1c" stroke="#1c1c1c" stroke-width="1.51"/><path d="M-326,1393L-254,1149L-249,1009Z" fill="#2b2b2b" stroke="#2b2b2b" stroke-width="1.51"/><path d="M-292,725L-326,1393L-249,1009Z" fill="#262626" stroke="#262626" stroke-width="1.51"/><path d="M-318,535L-326,1393L-292,725Z" fill="#1c1c1c" stroke="#1c1c1c" stroke-width="1.51"/><path d="M-334,-50L-315,325L-286,132Z" fill="#1d1d1d" stroke="#1d1d1d" stroke-width="1.51"/><path d="M-334,-50L-318,535L-315,325Z" fill="#181818" stroke="#181818" stroke-width="1.51"/><path d="M-334,-50L-326,1393L-318,535Z" fill="#1d1d1d" stroke="#1d1d1d" stroke-width="1.51"/></svg>